<?xml version="1.0" encoding="utf-8"?>
<!-- Generator: Adobe Illustrator 24.2.0, SVG Export Plug-In . SVG Version: 6.00 Build 0)  -->
<svg version="1.1" id="Layer_1" xmlns="http://www.w3.org/2000/svg" xmlns:xlink="http://www.w3.org/1999/xlink" x="0px" y="0px"
	 viewBox="0 0 297 297" style="enable-background:new 0 0 297 297;" xml:space="preserve">
<style type="text/css">
	.st0{fill:#39A347;}
</style>
<g>
	<g>
		<path class="st0" d="M287,60.9l-20.8,0V39.3c0-4.9-3.6-9.1-8.5-9.9c-0.9-0.1-21.1-3.1-45.6,1.4c-27.2,5-48.9,17.2-63.7,35.6
			C133.8,48,112.1,35.8,84.8,30.8c-24.4-4.4-44.7-1.5-45.6-1.4c-4.9,0.7-8.5,4.9-8.5,9.9v21.6H10c-5.5,0-10,4.5-10,10v187.8
			c0,3.2,1.6,6.3,4.2,8.1s6,2.4,9.1,1.3c0.7-0.3,75.4-25.7,131.1-0.3c2.6,1.2,5.6,1.2,8.3,0c55.5-25.3,130.4,0.1,131.1,0.3
			c1.1,0.4,2.2,0.6,3.3,0.6c2,0,4.1-0.6,5.8-1.8c2.6-1.9,4.2-4.9,4.2-8.1V70.8C297,65.3,292.5,60.9,287,60.9z M19.9,245.3V80.8h10.9
			v132.7c0,2.9,1.3,5.6,3.5,7.5c2.2,1.9,5.1,2.7,8,2.3c0.5-0.1,43.8-6,75.5,15.7C78.7,232.4,39.7,240.1,19.9,245.3z M138.5,230.1
			c-13.9-12.6-32.1-21.1-53.7-25c-10.4-1.9-20.1-2.4-27.8-2.4c-2.3,0-4.4,0-6.3,0.1V48.5h0c19.2-0.9,65.8,1.2,87.8,38.6V230.1z
			 M158.5,87.1c22-37.2,68.7-39.4,87.8-38.6v154.2c-8.4-0.3-20.6-0.1-34.1,2.3c-21.6,3.9-39.8,12.4-53.7,25L158.5,87.1L158.5,87.1z
			 M179.3,239.1c31.6-21.7,75-15.8,75.5-15.7c2.9,0.4,5.8-0.4,8-2.3c2.2-1.9,3.5-4.6,3.5-7.6V80.8h10.9v164.5
			C257.3,240.1,218.3,232.4,179.3,239.1z"/>
	</g>
</g>
</svg>
