<?xml version="1.0" encoding="utf-8"?>
<!-- Generator: Adobe Illustrator 24.2.0, SVG Export Plug-In . SVG Version: 6.00 Build 0)  -->
<svg version="1.1" id="Layer_1" xmlns="http://www.w3.org/2000/svg" xmlns:xlink="http://www.w3.org/1999/xlink" x="0px" y="0px"
	 viewBox="0 0 512 512" style="enable-background:new 0 0 512 512;" xml:space="preserve">
<style type="text/css">
	.st0{fill:#39A347;}
</style>
<path class="st0" d="M368,512H58.7C26.3,512,0,485.7,0,453.3V144c0-32.4,26.3-58.7,58.7-58.7H240c8.8,0,16,7.2,16,16s-7.2,16-16,16
	H58.7C44,117.3,32,129.3,32,144v309.3C32,468,44,480,58.7,480H368c14.7,0,26.7-12,26.7-26.7V272c0-8.8,7.2-16,16-16s16,7.1,16,16
	v181.3C426.7,485.7,400.4,512,368,512z"/>
<path class="st0" d="M187.1,340.8c-4.2,0-8.3-1.7-11.3-4.7c-3.8-3.8-5.4-9.2-4.4-14.4l15.1-75.4c0.6-3.1,2.2-6,4.4-8.2l221-220.9
	c22.9-22.9,60.1-22.9,83,0C505.9,28.2,512,42.9,512,58.6s-6.1,30.4-17.2,41.5L273.9,321c-2.2,2.2-5.1,3.8-8.2,4.4l-75.4,15.1
	C189.2,340.7,188.2,340.8,187.1,340.8z M262.6,309.7h0.2H262.6z M217,257.3l-9.4,47.1l47.1-9.4L472.2,77.5c5-5.1,7.8-11.7,7.8-18.9
	s-2.8-13.8-7.8-18.9c-10.4-10.4-27.3-10.4-37.7,0L217,257.3z"/>
<path class="st0" d="M453.3,135c-4.1,0-8.2-1.6-11.3-4.7l-60.3-60.4c-6.3-6.3-6.3-16.4,0-22.6s16.4-6.3,22.6,0l60.3,60.4
	c6.3,6.3,6.3,16.4,0,22.6C461.5,133.4,457.4,135,453.3,135z"/>
</svg>
